<?xml version="1.0" encoding="utf-8"?>
<!-- Generator: Adobe Illustrator 26.3.1, SVG Export Plug-In . SVG Version: 6.00 Build 0)  -->
<svg version="1.1" id="Layer_1" xmlns="http://www.w3.org/2000/svg" xmlns:xlink="http://www.w3.org/1999/xlink" x="0px" y="0px"
	 viewBox="0 0 3855 1112.6" style="enable-background:new 0 0 3855 1112.6;" xml:space="preserve">
<style type="text/css">
	.st0{fill:url(#SVGID_1_);}
	.st1{font-family:'Montserrat-Bold';}
	.st2{font-size:625.6145px;}
	.st3{font-family:'Montserrat-BoldItalic';}
</style>
<g id="Layer_2_00000109708481942605016860000008686016274781216923_">
	<g id="Layer_1-2">
		
			<linearGradient id="SVGID_1_" gradientUnits="userSpaceOnUse" x1="123.3523" y1="556.1168" x2="663.3342" y2="556.1168" gradientTransform="matrix(1 0 0 -1 0 1112.3937)">
			<stop  offset="0" style="stop-color:#3953A4"/>
			<stop  offset="0.99" style="stop-color:#0FB1E7"/>
		</linearGradient>
		<path class="st0" d="M339,571.4c0.1-4.8,0.4-9.6,0.6-14.4c0.1-2.1,3.3-3.2,3.3-3.2l49.7-16.2l48.4,15.3c0,0,1.8,0.2,2.9,0.3
			c0.2,0.8,0.4,1.7,0.5,2.5c0.1,5.7,0.2,11.5,0.1,17.2c-0.1,3-2.6,2.9-4.6,2.9c-10.2,0.2-20.3,0.4-30.4,0.5
			c-21.6,0.2-43.1,0.4-64.6,0.7C339.5,577.1,338.8,576.7,339,571.4z M212.1,209.3c14.3-3.5,28.5-7.5,42.8-11.1
			c29.3-7.6,59.4-11.3,89.5-13.8c38.4-3.1,77-4,115.4,2.3c27.8,4.6,55.7,8.5,83.4,13.4c10.4,1.9,20.4,6.2,30.7,9.1
			c3.3,0.9,7,0.6,12.1,1c-1.9-3.9-2.3-5.4-3.2-6.7c-9.7-15.5-19.2-31.2-29.5-46.3c-2.3-3.5-7.2-6.4-11.3-7.3c-14-3-28.2-5-42.3-7.5
			c-29.5-5.5-59.3-9.8-89.4-9.8c-24.6,0-49.4,0-73.8,2.7c-30.9,3.4-61.5,9.4-92.1,14.5c-3,0.5-6.8,2.1-8.5,4.4
			c-7.2,10-13.7,20.3-20.4,30.6c-4.9,7.6-9.6,15.3-15.3,24.6C205.5,209.4,209,210,212.1,209.3z M659.3,433.3
			c-8.6-14.1-17.4-28-26.3-41.9c-6-9.3-12.1-18.5-18.2-27.7c-0.9,0.2-0.9,0.2-1.8,0.4c-0.5,2.5-1.5,4.9-1.5,7.4
			c-0.1,30-0.2,60.1,0.1,90.1c0,5.3,1,10.7,2.8,15.7c3.7,9.5,8.6,18.6,12.7,27.9c8.5,19,16.8,37.9,25.2,56.9
			c2.1,4.7,4.1,9.4,6.2,14.2c0.9-0.1,0.9-0.1,1.7-0.2c0.7-3,1.8-6,1.8-9.1c0.2-12.6,0.1-25.2,0.1-37.7c0-28.9,0-57.8-0.3-86.8
			C661.9,439.4,661,436.2,659.3,433.3z M559,214.1c-9.7-2.6-19.4-5-29-7.4c-1,1.2-1,1.3-2,2.5c9.7,17.4,21.4,33.8,32,50.8
			c10.9,17.4,21.9,34.8,32.9,52.2s22.2,34.5,33.2,51.8s21.6,34.4,32.4,51.7l2.2-0.4c0.4-2.8,1.2-5.6,1.2-8.5
			c0.2-21.3-0.3-42.6,0.4-63.9c0.3-10.4-2.7-19.1-8.2-27.6c-16.7-25.9-33-52-49.6-78c-4.9-7.6-9.8-15-20.6-16.1
			C575.6,220.2,567.4,216.3,559,214.1z M124.4,407.3c0,2.7,1,5.4,1.9,9.3c2-1.6,2.6-1.9,3-2.4c21.4-34,42.7-68.1,64.3-102
			c20.5-32.3,41.2-64.4,61.7-96.6c1.5-2.4,2.3-5.3,3.8-9.1c-10.5,2.2-19.4,3.8-28.1,6.1c-10.5,2.8-21.1,5.8-31.3,9.4
			c-4.4,1.6-9.3,4-12,7.5c-6.4,8.3-11.6,17.4-17.3,26.3c-12.7,20-25.4,40-38.2,60c-4.7,7.3-8.1,14.5-7.9,23.7
			C124.7,362,124.3,384.7,124.4,407.3z M175,372.2c0-2.8-0.7-5.6-1.3-10.2c-1.3,1.3-2.5,2.6-3.6,4c-13.1,20.5-26.4,40.9-39.2,61.5
			c-2.8,4.6-6.1,10-6.2,15c-0.5,42-0.4,83.9-0.3,125.8c0,2.7,1.4,5.4,2.5,9.7c7.3-15.7,13.6-29.2,19.7-42.7
			c7-15.4,14.3-30.8,20.7-46.5c3.2-7.7,8.1-14.6,7.9-23.8C174.7,434.1,175.1,403.1,175,372.2z M198.8,648.9
			c7.2-25.4,14.6-50.7,21.8-76c2.2-7.7,4.4-15.5,6.6-23.1c4.8-16,9.8-32,14.3-48.1c0.8-3.5,0.7-7.1-0.4-10.5c-1.5-5.8-4-11.4-6-17
			c-9.2-25.2-18.3-50.4-27.5-75.6c-0.9-2.5-2.2-4.8-4-6.8c-0.7-0.7-4.4-0.2-4.7,0.6c-2.9,8.1-7.5,15.5-5.9,25
			c3.2,19.2,5.6,38.6,8.1,57.9c0.4,3.7-0.1,7.5-1.3,11c-4,11.4-8.5,22.5-12.7,33.8c-4.5,12.3-8.9,24.8-13.6,37.1
			c-6.8,17.9-13.8,35.8-20.8,53.7c-6.5,16.9-13.1,33.7-19.4,50.6c-4.4,11.9-9,23.5-8.8,36.8c0.4,30.5,0.2,61-1,91.5
			c-0.8,20.6,8.5,37.8,14.1,56.4c1.5,0.1,1.5,0.1,2.9,0.2c2.1-4.9,4.9-9.7,6.4-14.8c4.8-15.8,9-31.8,13.6-47.7
			c6.4-22.1,13.2-44.1,19.5-66.2C186.3,694.6,192.4,671.7,198.8,648.9z M661.6,688.5c-0.2-4-1-8-2.5-11.7c-2.6-7.1-5.7-14-8.4-21.1
			c-8.2-21.9-16.2-44-24.4-65.9c-10.8-28.8-21.3-57.8-33-86.3c-5.6-13.7-9-26.7-5.6-41.5c2.3-10.4,2.5-21.3,4.2-31.9
			c2.2-13.9,4.4-27.5-7-40.7c-2.2,3.7-4.6,6.9-6.2,10.5c-1.3,2.8-1.4,6.1-2.5,9.1c-5.1,13.8-10.3,27.6-15.5,41.3
			c-4.9,13-9.8,25.9-14.4,39c-1.2,3.4-1.8,7.6-1.1,11.1c1.8,8.5,4.5,16.9,6.9,25.2c4.6,15.7,9.5,31.2,13.9,46.9
			c4.6,16.3,8.7,32.8,13.3,49.2c7.1,25.4,14.5,50.6,21.8,76c2.2,7.7,4.6,15.4,6.8,23.1c4.8,16.3,9.5,32.6,14.3,48.8
			c3.2,11,6.4,21.9,9.5,32.8c2.6,9.3,4.9,18.6,7.8,27.7c1.7,5.3,4.2,10.3,6.3,15.4l2.5,0.1c0.9-1.5,1.7-3,2.3-4.6
			c2.6-7.4,5.4-14.6,7.5-22.1c2.2-7.3,5.2-14.7,5.2-22.1C663.2,760.7,662.4,724.6,661.6,688.5L661.6,688.5z M604,860.9
			c-6.5-29-13.3-58-19.8-87c-7.5-33.6-14.9-67.3-22.3-100.9c-5.7-26-11.4-52-17-78c-4.5-21.2-8.6-42.6-13.5-63.7
			c-1.1-5.1-3.8-9.6-7.6-13.2c-24.5-22.8-49.4-45.1-74-67.9c-4.2-3.9-7.2-3.6-10.8-0.2c-7.5,6.7-15.1,13.3-22.4,20.1
			c-8.7,8.1-17.9,15.8-18.7,29c-0.1,1.3-2.7,3.2-4.2,3.3c-1.5,0.1-3.8-1.5-4.5-2.9c-1.2-2.3-1-5.4-2.1-7.7
			c-2.1-4.4-3.9-9.2-7.2-12.5c-9.3-9.3-19.3-18-29-26.9c-7.4-6.8-8.2-7-15.5-0.4c-21.7,19.7-42.8,40.1-65.1,59.1
			c-10.7,9.2-15.8,19.7-17.4,33.3c-1.3,10.6-4.3,21-6.6,31.5c-4.8,20.7-9.8,41.4-14.4,62.1s-8.3,41.7-12.9,62.5
			c-4.6,21.1-10.1,42.2-14.7,63.4c-4.9,21.9-9.1,43.8-13.8,65.7c-2.4,11.1-5.4,22.1-7.8,33.4c-3,13.5-6,27.1-8.1,40.8
			c-0.5,4.8,0.8,9.7,3.5,13.7c9.9,13.5,20.7,26.4,30.8,39.7c3,3.8,5.2,2.9,7.3-0.3c1.1-1.9,1.9-4,2.3-6.2
			c3.9-20.7,7.6-41.4,11.5-62.1c5.4-29,11-57.9,16.5-86.9c5.7-30.5,11.4-61.1,17.1-91.7c3.7-19.6,7.2-39.1,10.8-58.7
			c6.2-33.7,12.2-67.4,18.7-101c0.6-3.3,3.2-7.5,6-8.7c10.2-4.4,20.8-7.8,31.4-11.3c16.6-5.4,33.2-10.4,49.9-15.6
			c4.2-1.3,8.5-2.5,11.9-3.5c1.9,0.2,3.9,0.5,5.8,0.9c14.5,4.4,29,8.7,43.5,13.4c14.9,4.8,29.5,10.1,44.4,14.8
			c4.6,1.4,7,3.5,7.8,8.5c2.5,15.5,5.5,30.9,8.5,46.3c2.6,13.6,5.6,27.2,8.1,40.8c2.9,15.4,5.4,30.9,8.2,46.3
			c1.9,10.4,3.8,20.7,5.8,31c4.8,25.3,9.7,50.6,14.5,75.9c2.8,14.7,5,29.6,7.9,44.3c4.6,24.2,9.6,48.3,14.2,72.5
			c2.7,14.3,5,28.7,7.7,43c0.4,2.9,1.3,5.7,2.6,8.3c1.5,2.8,3.8,3.7,6.3,0.5c10.8-13.7,21.9-27.1,32.3-41.1
			c2.4-3.4,3.5-7.6,3.1-11.8C610.2,889.7,607.2,875.3,604,860.9L604,860.9z M475.6,726.5c-4.8-11.3-8.8-23-12.2-34.8
			c-4.2-14.3-8.3-28.7-11-43.4c-2.9-16-4.3-32.4-6.4-48.6c-0.7-5.4-1.6-6.2-7.2-6.2c-23.7,0.3-47.3,0.5-71,0.8
			c-9.3,0.1-18.6,0.4-27.9,0.5c-2.4,0.1-3.1,1-3.4,3.4c-1.5,10.8-2.9,21.6-5.2,32.2c-3.9,17.8-7.6,35.8-13.2,53.2
			c-5.5,17.1-13.2,33.7-20.2,50.4c-6,14.3-14.1,27.6-23,40.4c-1.4,2.1-2.2,3.9-0.6,6.4c7.4,11.1,15,22.1,22,33.5
			c5.5,8.8,10.4,18,15.2,27.3c4.2,8.1,8.1,16.4,11.9,24.7c4.7,10.1,9.3,20.1,13.5,30.4c4,9.6,7.7,19.3,11.3,29.1
			c3.7,9.7,7.1,19.3,10.5,29c2.6,7.4,5,14.9,7.4,22.4c1.3,3.9,4.8,2.7,7.3,2.6c1.3-0.1,3.5-2.9,3.6-4.5c0.5-13.1,0.7-26.3,1-39.4
			c0.5-20.4,1-40.8,1.4-61.1c0.3-15.5,0.5-30.9,0.8-46.4c0.1-3.2-1.5-4-4-5.1c-4.3-1.9-9.1-3.7-12.2-6.9
			c-13.4-13.5-13.6-33.3,2-49.4c2.2-1.3,6-4.4,10.4-5.8c18.1-6.3,37.5,2.9,42.3,22.4c3.8,15.3-4.7,32.7-20.6,38.9
			c-3.5,1.4-4.6,3.3-4.7,6.7c-0.8,39-1.6,78-2.5,117c-0.3,9.5-0.5,19-0.7,28.4c-0.1,2.3-0.1,4.9,3.2,5.1c3,0.2,5.3-0.1,6.5-4
			c1.9-6.4,4.5-12.7,7-19c3.6-9.1,7.1-18.2,10.9-27.3c3.9-9.3,7.8-18.6,11.9-27.9c3.2-7.2,6.7-14.2,10.1-21.3
			c5.6-11.3,10.9-22.7,16.8-33.8c4.7-8.8,9.8-17.5,15.2-25.9c8.8-13.5,17.8-26.9,26.9-40.1c2.3-3.4,2.7-5.9,0.4-9.3
			C489.6,757.3,482.3,742,475.6,726.5z M497.3,327.5c-1.3,2-1.4,2.3,0.1,4.6c8.3,13.2,12.5,26,12.8,39c8.9,7.8,9.9,21.3,2.1,30.2
			c-4.1,4.7-10,7.4-16.2,7.3c-1.7,0-3.4-0.2-5-0.6h-0.1c-1.1,0.6-2.2,1.2-3.4,1.9c-2,1.2-4.1,2.3-6.2,3.2
			c-9.6,3.9-19.9,5.8-30.2,5.6c-2,0-4.1-0.1-6.2-0.2l-0.9,1.6c-3.2,5.5-6.6,10.8-10.4,15.9c-7.7,9.9-16.9,16.6-27.4,19.9
			c-1.7,0.5-3.4,0.9-5,1.3c-0.7,0.2-1.4,0.3-2.1,0.5l-0.6,0.2h-10.7l-0.9-0.5c-9.2-1.4-17.6-5.7-25.7-12.9
			c-7.5-6.7-13.8-15.2-19.3-25.9c-2,0.1-4,0.1-6,0.1c-2.6,0-4.8-0.1-6.9-0.2c-13.1-0.9-24-4.3-33.1-10.4c-1.7,0.4-3.3,0.6-5,0.6
			c-8.1,0-15.5-4.5-19.1-11.6c-4.5-8.8-2.4-19.2,5.1-26c0.2-1.4,0.3-2.9,0.5-4.4c0.2-2.5,0.5-5.1,1-7.6c1.9-9.6,6-19,12.6-29.3
			c-1.4-2.1-2.5-4.1-3.5-5.9c-7-12.8-10.4-24.1-10.6-35.5c-8.9-7.8-9.9-21.3-2.2-30.2c4.1-4.7,10-7.4,16.3-7.4
			c1.7,0,3.4,0.2,5.1,0.6c0.1,0,0.2-0.1,0.3-0.1c1.6-0.7,3.1-1.5,4.7-2.4c3-1.6,6.1-3.1,9.3-4.3c8.2-2.8,16.8-4.1,25.4-4
			c2,0,4.1,0,6.3,0.2c1.7-3.4,3.6-6.6,5.6-9.8c5-7.7,13.3-18.6,26.3-24.8c3.1-1.4,6.4-2.5,9.7-3.3c1.4-0.4,2.7-0.8,4-1.2l0.8-0.2
			h10.8l0.9,0.5c9.2,1.5,17.5,5.6,25.5,12.8c7.6,6.8,13.9,15.3,19.5,26.2c1.8,0,3.8-0.1,5.9-0.1c2.5,0,4.7,0.1,6.8,0.2
			c13.6,0.9,24.2,4.3,33.2,10.5c1.7-0.5,3.5-0.7,5.4-0.7c7.1,0,13.8,3.5,17.7,9.4c5.4,8.1,4.9,18.6-1.2,25c-2,2.1-2.8,4.2-3,7.8
			C508.9,304.8,504.8,316,497.3,327.5L497.3,327.5z M477,377.7c2.9-5.7,8.2-9.8,14.4-11.3c-1.1-7.3-3.4-14.3-7-20.7
			c-7.1,8.4-15,16.1-23.4,23.1c0,0.1-0.1,0.2-0.1,0.4c-1.2,4.4-2.3,8.9-3.4,13.3c-1.4,5.6-2.9,11.3-4.3,16.9
			c-0.1,0.4-0.2,0.8-0.3,1.2c9.6-0.3,16.9-1.9,23.4-4.9C473.9,389.8,474.2,383.2,477,377.7L477,377.7z M310.4,395.5
			c6.5,3.1,15.9,4.8,23.5,5c-3.5-9.9-6.2-20.2-7.9-30.6c-0.1-0.9-0.6-1.7-1.3-2.3c-8.1-6.7-15.6-14.1-22.4-22.1
			c-3.5,6.5-5.9,13.5-7,20.8c11.5,2.6,18.8,14,16.2,25.6C311.3,393.2,311,394.3,310.4,395.5L310.4,395.5z M290.6,390.5
			c1.7,0,3.2-1.4,3.2-3.2c0-0.8-0.3-1.6-0.9-2.2c-0.6-0.6-1.4-1-2.3-1v-5l0,0v5c-0.8,0-1.6,0.4-2.2,1c-0.6,0.6-0.9,1.4-0.9,2.3
			C287.5,389.1,288.9,390.5,290.6,390.5C290.6,390.5,290.6,390.5,290.6,390.5L290.6,390.5z M309.8,281.9c-2.9,5.8-8.2,9.9-14.5,11.4
			c1.3,7.2,3.7,14.2,7,20.7c7.1-8.4,15-16.1,23.4-23.1l0.1-0.3c0.8-3.3,1.6-6.5,2.3-9.8c1.2-5.2,2.5-10.6,3.9-16
			c0.5-2,1.1-3.9,1.8-5.8c-8.6,0.2-18,2.3-23.4,5C312.9,269.8,312.6,276.3,309.8,281.9L309.8,281.9z M476.3,264.1
			c-6.6-3.1-14.1-4.7-23.5-5c3.5,9.9,6.2,20,7.8,30.3c0.1,1.1,0.7,2,1.6,2.6c8,6.6,15.4,13.9,22.1,21.9c3.5-6.5,5.9-13.5,7-20.8
			c-11.5-2.6-18.8-14-16.2-25.5C475.5,266.4,475.9,265.2,476.3,264.1L476.3,264.1z M463.9,341.1c3.5-3.6,6.8-7.4,9.9-11.4
			c-3.2-4-6.5-7.7-9.9-11.3C464.2,326,464.2,333.6,463.9,341.1L463.9,341.1z M393.4,388.1c18.1-7.4,35.1-17.2,50.5-29.2
			c2.7-19.3,2.7-39,0-58.3c-15.4-12-32.4-21.8-50.5-29.2c-18.1,7.3-35.1,17.1-50.5,29.1c-0.7,7.6-1.4,15.4-2,22.9l-0.5,6.2l0.5,6.2
			c0.6,7.5,1.3,15.3,2,23C358.4,370.9,375.3,380.7,393.4,388.1L393.4,388.1z M438.6,274.5c-1.4-4.8-3-9.5-4.9-14.2
			c-4.6,0.8-9.7,1.7-14.6,2.7C426,266.7,432.5,270.5,438.6,274.5z M425.2,243c-5.3-8.7-10.8-14.6-17.4-18.8c-8.2-5.7-19-6-27.4-0.8
			c-5.8,3.4-10.9,8-14.7,13.6c-1.4,1.9-2.7,3.9-4,6c10.8,2,21.5,4.9,31.8,8.7l0.3-0.1c1.7-0.5,3.4-1.1,5.1-1.7
			c3.2-1.1,6.4-2.2,9.8-3c5.4-1.4,10.9-2.6,16.2-3.8L425.2,243z M348.5,274.3c6-3.9,12.2-7.5,18.8-10.8c-4.7-1.1-9.5-2.2-14.2-3.2
			l-0.4,0.9c-0.4,0.9-0.7,1.8-1,2.6C350.6,267.2,349.5,270.8,348.5,274.3L348.5,274.3z M322.9,318.4c-3.5,3.6-6.7,7.4-9.9,11.3
			c3.2,4,6.5,7.8,9.9,11.3C322.6,333.6,322.6,326.1,322.9,318.4L322.9,318.4z M293.9,272.3c0-0.8-0.3-1.6-0.9-2.2
			c-0.6-0.6-1.4-1-2.3-1h-0.1c-1.7,0-3.1,1.4-3.1,3.1c0,0,0,0,0,0.1c0,0.9,0.3,1.7,0.9,2.3c0.6,0.6,1.4,0.9,2.2,0.9
			C292.4,275.4,293.8,274,293.9,272.3L293.9,272.3z M348.2,385.1c1.4,4.9,3,9.6,4.9,14.3c2-0.3,3.7-0.5,5.2-0.9
			c3.1-0.7,6.2-1.4,9.4-2.2C361,392.9,354.5,389.1,348.2,385.1L348.2,385.1z M361.5,416.6c3.5,5.9,8,11.3,13.2,15.8
			c5.9,5,12.2,7.5,18.6,7.5c5.7-0.1,11.2-2,15.8-5.4c6.1-4.2,11.4-10.1,16.1-17.9c-10.8-2-21.5-4.9-31.8-8.8
			C383,411.6,372.4,414.6,361.5,416.6L361.5,416.6z M438.2,386.1c0.1-0.2,0.1-0.4,0.2-0.7c-6.3,3.9-12.6,7.4-18.8,10.7
			c4.6,1,9.4,2.1,14.1,3.1c0.5-1.3,0.9-2.6,1.4-3.8C436.1,392.3,437.3,389.2,438.2,386.1z M492.9,387.3c0,0.8,0.3,1.6,0.9,2.2
			c0.6,0.6,1.4,1,2.3,1l0,0c0.8,0,1.6-0.3,2.2-0.9c1.2-1.3,1.2-3.3-0.1-4.6c-0.6-0.6-1.3-0.9-2.1-0.9l0,0
			C494.4,384.2,493,385.6,492.9,387.3L492.9,387.3z M496.1,264v5c-0.9,0-1.7,0.4-2.3,1c-0.6,0.6-0.9,1.4-0.9,2.2
			c0.1,1.7,1.4,3.1,3.2,3.2l0,0c1.7,0,3.2-1.4,3.2-3.1c0,0,0,0,0,0c0-0.9-0.3-1.7-0.9-2.3c-0.6-0.6-1.4-0.9-2.2-0.9L496.1,264
			L496.1,264z"/>
	</g>
</g>
<text transform="matrix(1 0 0 1 714.5803 754.6841)"><tspan x="0" y="0" class="st1 st2">Odin</tspan><tspan x="1581.5" y="0" class="st3 st2">Sum</tspan></text>
<text transform="matrix(1 0 0 1 714.58 -176.9208)" class="st1" style="font-size:663.7558px;">odinsum</text>
</svg>
