<svg xmlns="http://www.w3.org/2000/svg" xmlns:xlink="http://www.w3.org/1999/xlink" viewBox="0 0 536.5 842.16"><defs><style>.cls-1{fill:url(#linear-gradient);}</style><linearGradient id="linear-gradient" y1="421.08" x2="536.5" y2="421.08" gradientUnits="userSpaceOnUse"><stop offset="0" stop-color="#3953a4"/><stop offset="0.99" stop-color="#0fb1e7"/></linearGradient></defs><g id="Layer_2" data-name="Layer 2"><g id="Layer_1-2" data-name="Layer 1"><path class="cls-1" d="M214.21,436.12c.11-4.78.38-9.52.6-14.32.07-2.07,3.27-3.16,3.27-3.16l49.38-16.12,48.09,15.21s1.82.2,2.87.27a13.12,13.12,0,0,1,.49,2.49c.09,5.69.15,11.4.09,17.14-.05,3-2.58,2.87-4.54,2.89-10.09.22-20.19.42-30.24.53-21.43.22-42.82.38-64.2.69C214.72,441.81,214.06,441.39,214.21,436.12ZM88.18,76.28c14.2-3.47,28.32-7.43,42.48-11.07,29.15-7.54,59-11.27,88.89-13.67,38.19-3.09,76.55-4,114.65,2.29,27.62,4.53,55.34,8.4,82.86,13.34,10.36,1.88,20.3,6.13,30.55,9,3.27.87,6.94.6,12.05,1-1.84-3.89-2.33-5.4-3.15-6.67-9.65-15.41-19.08-31-29.29-46-2.33-3.45-7.11-6.34-11.25-7.27-13.89-3-28-4.94-42-7.47C344.61,4.31,315,0,285.16,0c-24.48,0-49.11,0-73.37,2.69-30.68,3.38-61.1,9.34-91.55,14.45-3,.49-6.74,2.05-8.41,4.34-7.11,9.91-13.63,20.18-20.25,30.43-4.87,7.54-9.5,15.21-15.25,24.48C81.55,76.39,85.06,77,88.18,76.28ZM532.47,298.92c-8.51-14-17.29-27.81-26.14-41.6-5.92-9.23-12.05-18.34-18.12-27.48-.91.18-.93.18-1.8.38-.49,2.45-1.45,4.89-1.45,7.34-.06,29.85-.18,59.69.09,89.55a44.06,44.06,0,0,0,2.83,15.56c3.69,9.45,8.51,18.45,12.65,27.77C509,389.27,517.24,408.1,525.58,427c2.07,4.69,4.09,9.38,6.16,14.09.87-.06.87-.06,1.73-.15.65-3,1.78-6,1.83-9,.22-12.5.13-25,.11-37.44,0-28.73,0-57.47-.27-86.22A18.37,18.37,0,0,0,532.47,298.92ZM432.87,81.06c-9.6-2.6-19.23-4.94-28.83-7.38-1,1.2-1,1.31-2,2.53,9.67,17.32,21.23,33.6,31.75,50.43,10.8,17.32,21.76,34.57,32.72,51.82s22.1,34.31,33,51.52,21.46,34.23,32.24,51.33l2.18-.44c.44-2.83,1.24-5.61,1.24-8.41.16-21.16-.31-42.33.43-63.45.33-10.36-2.69-19-8.14-27.46-16.59-25.72-32.75-51.71-49.31-77.48-4.85-7.6-9.72-14.87-20.48-16C449.3,87.13,441.16,83.33,432.87,81.06ZM1,273.06c0,2.71,1,5.4,1.84,9.21,2-1.58,2.63-1.89,3-2.38C27.1,246.12,48.27,212.26,69.7,178.51c20.32-32.06,40.89-64,61.27-96,1.52-2.38,2.25-5.3,3.76-9-10.43,2.23-19.27,3.81-27.9,6.07-10.47,2.76-20.94,5.76-31.15,9.34-4.38,1.56-9.22,4-11.94,7.47-6.36,8.2-11.56,17.32-17.18,26.12C33.91,142.38,21.37,162.3,8.61,182.09c-4.67,7.22-8,14.45-7.81,23.5C1.25,228.06.85,250.58,1,273.06ZM51.27,238.2c0-2.8-.67-5.53-1.27-10.18a46,46,0,0,0-3.58,4c-13.05,20.34-26.21,40.64-39,61.12-2.83,4.56-6.07,9.91-6.14,14.92-.53,41.7-.42,83.35-.29,125,0,2.67,1.36,5.34,2.51,9.65,7.21-15.56,13.5-29,19.59-42.47,7-15.31,14.16-30.57,20.57-46.17,3.15-7.61,8-14.5,7.82-23.64C51,299.7,51.36,268.93,51.27,238.2ZM74.88,513.11c7.12-25.24,14.47-50.36,21.7-75.55,2.22-7.65,4.34-15.38,6.6-23,4.74-15.92,9.72-31.82,14.17-47.82a20.72,20.72,0,0,0-.36-10.48c-1.53-5.75-4-11.29-6-16.94q-13.64-37.52-27.32-75.08a19.16,19.16,0,0,0-4-6.73c-.69-.72-4.34-.18-4.65.57-2.93,8-7.49,15.43-5.91,24.82,3.13,19.09,5.58,38.35,8,57.53a25.94,25.94,0,0,1-1.31,10.94c-3.94,11.3-8.41,22.37-12.57,33.6-4.51,12.27-8.8,24.63-13.47,36.86C43,439.65,36,457.39,29.08,475.18c-6.47,16.76-13,33.48-19.32,50.31C5.36,537.27.85,548.81,1,562.06c.43,30.28.23,60.61-1,90.89-.78,20.46,8.47,37.6,14,56,1.45.06,1.47.06,2.92.17,2.13-4.89,4.82-9.62,6.31-14.71C28,678.67,32.17,662.78,36.73,647c6.38-21.94,13.12-43.8,19.36-65.78C62.54,558.57,68.52,535.78,74.88,513.11Zm459.88,39.35a39.21,39.21,0,0,0-2.44-11.63c-2.54-7.09-5.69-13.94-8.34-21-8.16-21.81-16.07-43.68-24.28-65.49-10.78-28.62-21.14-57.47-32.81-85.73-5.61-13.59-8.9-26.5-5.58-41.2,2.33-10.36,2.53-21.21,4.15-31.7,2.14-13.77,4.41-27.35-7-40.47-2.2,3.63-4.56,6.83-6.18,10.41-1.29,2.78-1.42,6.07-2.53,9-5.05,13.72-10.23,27.39-15.37,41-4.82,12.94-9.78,25.74-14.31,38.77-1.16,3.38-1.81,7.54-1.05,11,1.78,8.47,4.45,16.77,6.89,25,4.56,15.56,9.39,31,13.79,46.6,4.6,16.23,8.69,32.61,13.25,48.89,7.09,25.19,14.4,50.31,21.65,75.48,2.2,7.67,4.54,15.32,6.76,23q7.11,24.27,14.23,48.53c3.16,10.9,6.34,21.75,9.45,32.62,2.6,9.2,4.91,18.45,7.76,27.57,1.67,5.24,4.16,10.22,6.29,15.29l2.45.09a39.75,39.75,0,0,0,2.33-4.6c2.6-7.32,5.36-14.54,7.49-22,2.16-7.22,5.14-14.6,5.14-21.92C536.41,624.18,535.54,588.32,534.76,552.46Zm-57.25,171.3c-6.44-28.86-13.22-57.62-19.69-86.48-7.47-33.42-14.77-66.86-22.12-100.29-5.65-25.84-11.37-51.67-16.9-77.53-4.52-21.08-8.56-42.29-13.41-63.3a25.36,25.36,0,0,0-7.58-13.07c-24.32-22.68-49.13-44.78-73.48-67.43-4.22-3.91-7.11-3.54-10.76-.24-7.47,6.64-15,13.25-22.3,20-8.67,8-17.74,15.67-18.61,28.81-.09,1.27-2.67,3.2-4.18,3.27s-3.78-1.47-4.51-2.89c-1.18-2.31-1-5.32-2.09-7.65-2.07-4.34-3.91-9.16-7.18-12.47-9.23-9.27-19.14-17.9-28.77-26.75-7.4-6.8-8.14-7-15.38-.44C189,336.87,168,357.1,145.85,376c-10.65,9.11-15.7,19.58-17.32,33.1-1.25,10.54-4.23,20.9-6.6,31.26-4.72,20.61-9.76,41.09-14.28,61.7s-8.29,41.42-12.85,62.07c-4.62,21-10,41.95-14.6,63-4.83,21.75-9,43.53-13.74,65.28-2.38,11.07-5.36,22-7.76,33.15-2.94,13.43-6,26.92-8,40.5a20.36,20.36,0,0,0,3.51,13.57C64,793,74.75,805.82,84.86,819.05c2.94,3.8,5.14,2.89,7.21-.31a18.77,18.77,0,0,0,2.29-6.2c3.84-20.55,7.53-41.11,11.4-61.68,5.4-28.77,10.94-57.58,16.37-86.39q8.56-45.53,17-91.07c3.63-19.43,7.16-38.9,10.74-58.34,6.14-33.48,12.14-67,18.57-100.33.64-3.25,3.2-7.47,6-8.67,10.11-4.34,20.68-7.76,31.17-11.19,16.5-5.33,33-10.38,49.58-15.51,4.22-1.32,8.47-2.52,11.78-3.49a52.89,52.89,0,0,1,5.74.93c14.4,4.4,28.83,8.69,43.2,13.34,14.76,4.73,29.32,10.05,44.13,14.72,4.62,1.42,6.93,3.51,7.76,8.47,2.49,15.36,5.42,30.7,8.4,46,2.6,13.51,5.58,27,8.09,40.5,2.87,15.3,5.38,30.66,8.1,46,1.84,10.32,3.78,20.61,5.73,30.84,4.78,25.12,9.67,50.25,14.39,75.37,2.75,14.65,5,29.39,7.82,44,4.6,24,9.5,48,14.14,72,2.71,14.2,5,28.48,7.67,42.7A28.49,28.49,0,0,0,444.7,819c1.51,2.83,3.73,3.67,6.22.49,10.7-13.58,21.73-26.92,32.06-40.82a17.16,17.16,0,0,0,3.07-11.71C483.72,752.42,480.72,738.06,477.51,723.76ZM350,590.28a308.21,308.21,0,0,1-12.12-34.57c-4.18-14.21-8.2-28.53-10.89-43.09-2.93-15.94-4.31-32.17-6.31-48.29-.65-5.36-1.63-6.18-7.12-6.14-23.5.34-47,.54-70.54.83-9.23.11-18.46.37-27.73.48-2.42.05-3.09,1-3.42,3.41-1.51,10.69-2.87,21.43-5.2,32-3.92,17.69-7.58,35.59-13.12,52.87-5.49,17-13.07,33.48-20.08,50.06-6,14.23-14,27.42-22.9,40.16-1.42,2.06-2.22,3.91-.55,6.31,7.38,11,14.92,22,21.87,33.26,5.43,8.78,10.32,17.92,15.12,27.08,4.18,8.07,8,16.32,11.85,24.59,4.65,10,9.21,20,13.45,30.21,4,9.54,7.61,19.21,11.25,28.88s7.05,19.19,10.41,28.82c2.6,7.36,5,14.76,7.38,22.23,1.29,3.85,4.78,2.67,7.23,2.56,1.28-.07,3.51-2.89,3.57-4.49.54-13.06.69-26.11,1-39.13.45-20.26,1-40.53,1.38-60.74.31-15.37.47-30.75.84-46.07.07-3.13-1.46-4-4-5.11-4.27-1.89-9-3.67-12.16-6.87-13.3-13.41-13.5-33.06,2-49.07,2.23-1.29,6-4.34,10.36-5.8,17.95-6.25,37.27,2.93,42,22.25,3.74,15.25-4.71,32.51-20.47,38.69-3.52,1.4-4.61,3.26-4.7,6.67q-1.15,58.13-2.46,116.25c-.25,9.43-.54,18.83-.69,28.26-.05,2.29-.07,4.85,3.2,5.09,3,.18,5.31-.09,6.45-4,1.89-6.4,4.51-12.65,6.95-18.92,3.54-9.07,7.1-18.12,10.81-27.08,3.85-9.29,7.74-18.52,11.83-27.72C307.66,757,311.15,750,314.57,743c5.52-11.2,10.83-22.54,16.65-33.61,4.65-8.74,9.7-17.34,15.08-25.7C355,670.23,364,657,373.07,643.88c2.33-3.36,2.69-5.91.37-9.23C363.84,620.87,356.61,605.68,350,590.28Zm21.57-396.47c-1.27,1.95-1.35,2.33.07,4.57,8.29,13.13,12.45,25.83,12.7,38.76a21.29,21.29,0,0,1-14.06,37.34,23.13,23.13,0,0,1-5-.56l-.07,0c-1.11.57-2.23,1.21-3.4,1.89a52.87,52.87,0,0,1-6.19,3.21,76.92,76.92,0,0,1-30,5.56c-2,0-4.09-.06-6.2-.18L318.5,286a165.3,165.3,0,0,1-10.35,15.8c-7.62,9.87-16.77,16.52-27.2,19.76-1.7.53-3.39.94-5,1.33-.71.16-1.41.33-2.11.51l-.6.15H262.61l-.9-.53c-9.14-1.44-17.5-5.66-25.5-12.86-7.43-6.69-13.73-15.13-19.22-25.78-2,.05-4,.1-6,.1-2.54,0-4.79-.07-6.87-.22-13-.89-23.8-4.27-32.92-10.35a23.22,23.22,0,0,1-5,.56,21.21,21.21,0,0,1-19-11.55c-4.47-8.75-2.43-19.07,5.06-25.84.2-1.42.33-2.87.46-4.4a68.08,68.08,0,0,1,1-7.51c1.93-9.56,5.92-18.84,12.53-29.1-1.37-2.06-2.52-4.09-3.49-5.85-7-12.69-10.34-23.93-10.53-35.24a21.3,21.3,0,0,1,14-37.4,22.46,22.46,0,0,1,5.09.59,1.87,1.87,0,0,0,.26-.1c1.56-.71,3.09-1.5,4.71-2.34a75.25,75.25,0,0,1,9.25-4.24,74.24,74.24,0,0,1,25.22-3.93c2,0,4.08,0,6.27.16A104.17,104.17,0,0,1,222.62,98c5-7.64,13.2-18.5,26.16-24.69A61.29,61.29,0,0,1,258.46,70c1.39-.4,2.7-.77,4-1.19l.75-.24h10.75l.91.53c9.1,1.45,17.39,5.61,25.33,12.71,7.51,6.72,13.85,15.22,19.38,26,1.78,0,3.8-.1,5.87-.1,2.48,0,4.7.07,6.78.22,13.51.94,24,4.24,33,10.39a20.29,20.29,0,0,1,5.32-.7A21.17,21.17,0,0,1,388.15,127c5.32,8,4.83,18.44-1.16,24.89-2,2.11-2.76,4.15-3,7.79C383.08,171.2,379,182.36,371.58,193.81Zm-20.23,49.8a21.77,21.77,0,0,1,14.3-11.24,61.8,61.8,0,0,0-6.91-20.58,196.24,196.24,0,0,1-23.24,23,2.26,2.26,0,0,0-.1.35c-1.15,4.41-2.27,8.82-3.39,13.24-1.42,5.6-2.84,11.21-4.3,16.8-.1.39-.21.77-.33,1.15,9.52-.32,16.84-1.86,23.27-4.91A21.37,21.37,0,0,1,351.35,243.61Zm-165.5,17.76c6.41,3.1,15.79,4.79,23.34,5A173.67,173.67,0,0,1,201.34,236a3.06,3.06,0,0,0-1.3-2.26,175.54,175.54,0,0,1-22.22-22,62.48,62.48,0,0,0-6.93,20.67,21.27,21.27,0,0,1,15,28.91Zm-19.67-5a3.23,3.23,0,0,0,3.19-3.14,3.09,3.09,0,0,0-.91-2.19,3.26,3.26,0,0,0-2.26-1l0-5h0v5A3.05,3.05,0,0,0,164,251a3.19,3.19,0,0,0-.93,2.27A3.1,3.1,0,0,0,166.18,256.37Zm19.07-107.91a21.63,21.63,0,0,1-14.45,11.32,73,73,0,0,0,7,20.58,192.63,192.63,0,0,1,23.29-23l.08-.28c.8-3.24,1.56-6.48,2.33-9.73,1.23-5.19,2.49-10.57,3.87-15.85.51-2,1.14-3.87,1.79-5.73-8.55.22-17.88,2.25-23.27,4.92A21.26,21.26,0,0,1,185.25,148.46Zm165.46-17.7c-6.52-3.07-14-4.65-23.34-5a170.09,170.09,0,0,1,7.79,30.14,3.68,3.68,0,0,0,1.62,2.61,175.76,175.76,0,0,1,22,21.74,62.07,62.07,0,0,0,6.93-20.65,21.24,21.24,0,0,1-15-28.88Zm-12.4,76.56A145.6,145.6,0,0,0,348.13,196c-3.15-4-6.41-7.7-9.83-11.26C338.64,192.33,338.64,199.81,338.31,207.32Zm-70,46.65a210.84,210.84,0,0,0,50.17-29,212.78,212.78,0,0,0,0-57.92,211.24,211.24,0,0,0-50.14-29,210.12,210.12,0,0,0-50.14,28.94c-.71,7.56-1.36,15.27-2,22.73l-.52,6.2.52,6.17c.63,7.49,1.28,15.24,2,22.86A210.93,210.93,0,0,0,268.27,254ZM313.2,141.1a146.49,146.49,0,0,0-4.85-14.1c-4.61.78-9.63,1.65-14.48,2.71C300.71,133.4,307.13,137.18,313.2,141.1Zm-13.28-31.25c-5.22-8.64-10.7-14.52-17.33-18.69a24.86,24.86,0,0,0-27.27-.81,44.73,44.73,0,0,0-14.57,13.5c-1.38,1.92-2.69,3.92-4,6a189.17,189.17,0,0,1,31.6,8.68l.28-.09c1.7-.53,3.39-1.11,5.07-1.69,3.14-1.07,6.38-2.17,9.72-3,5.37-1.4,10.83-2.61,16.12-3.78Zm-76.27,31.06c6-3.84,12.17-7.42,18.65-10.78-4.68-1.11-9.44-2.2-14.14-3.2l-.37.9c-.36.9-.7,1.76-.95,2.55Q225.24,135.64,223.65,140.91Zm-25.42,43.87c-3.44,3.58-6.7,7.32-9.81,11.26,3.16,4,6.41,7.73,9.8,11.26C197.89,199.85,197.89,192.37,198.23,184.78Zm-28.86-45.87a3.05,3.05,0,0,0-.87-2.17,3.2,3.2,0,0,0-2.28-1h-.05a3.09,3.09,0,0,0-3.1,3.13,3.23,3.23,0,0,0,.93,2.28,3.06,3.06,0,0,0,2.18.91A3.26,3.26,0,0,0,169.37,138.91Zm54,112.08a142.19,142.19,0,0,0,4.9,14.23c2-.25,3.64-.53,5.18-.87,3.09-.69,6.21-1.42,9.31-2.15Q232.74,257,223.37,251Zm13.26,31.27a62.8,62.8,0,0,0,13.09,15.65c5.89,5,12.1,7.48,18.46,7.48a27.51,27.51,0,0,0,15.73-5.32c6.11-4.22,11.28-10,16-17.81a192.75,192.75,0,0,1-31.64-8.7A188.49,188.49,0,0,1,236.63,282.26ZM312.84,252c.07-.22.14-.44.2-.66-6.26,3.86-12.48,7.38-18.73,10.61,4.61,1,9.33,2.05,14,3.11.45-1.28.9-2.55,1.36-3.82C310.76,258.2,311.88,255.06,312.84,252Zm54.33,1.21a3.14,3.14,0,0,0,.91,2.19,3.23,3.23,0,0,0,2.27,1h0a3.09,3.09,0,0,0,2.21-.9,3.2,3.2,0,0,0-2.18-5.43h0A3.28,3.28,0,0,0,367.17,253.2Zm3.18-122.48v5a3.18,3.18,0,0,0-2.25,1,3.12,3.12,0,0,0-.93,2.2,3.28,3.28,0,0,0,3.16,3.17h0a3.13,3.13,0,0,0,3.14-3.13,3.18,3.18,0,0,0-.9-2.29,3.14,3.14,0,0,0-2.21-.91v-5Z"/></g></g></svg>